<?xml version="1.0" encoding="utf-8"?>
<!-- Generator: Adobe Illustrator 17.0.0, SVG Export Plug-In . SVG Version: 6.00 Build 0)  -->
<!DOCTYPE svg PUBLIC "-//W3C//DTD SVG 1.1//EN" "http://www.w3.org/Graphics/SVG/1.1/DTD/svg11.dtd">
<svg version="1.1" id="Layer_1" xmlns="http://www.w3.org/2000/svg" xmlns:xlink="http://www.w3.org/1999/xlink" x="0px" y="0px"
	 width="768px" height="1024px" viewBox="0 0 768 1024" enable-background="new 0 0 768 1024" xml:space="preserve">
<line opacity="0.4" fill="none" stroke="#A8A8A8" stroke-miterlimit="10" x1="0.5" y1="31" x2="0.5" y2="1067"/>
<line opacity="0.4" fill="none" stroke="#A8A8A8" stroke-miterlimit="10" x1="29.5" y1="30" x2="29.5" y2="1066"/>
<line opacity="0.4" fill="none" stroke="#A8A8A8" stroke-miterlimit="10" x1="61.5" y1="30" x2="61.5" y2="1079"/>
<line opacity="0.4" fill="none" stroke="#A8A8A8" stroke-miterlimit="10" x1="94.5" y1="30" x2="94.5" y2="1066"/>
<line opacity="0.4" fill="none" stroke="#A8A8A8" stroke-miterlimit="10" x1="125.5" y1="30" x2="125.5" y2="1066"/>
<line opacity="0.4" fill="none" stroke="#A8A8A8" stroke-miterlimit="10" x1="158.5" y1="30" x2="158.5" y2="1080"/>
<line opacity="0.4" fill="none" stroke="#A8A8A8" stroke-miterlimit="10" x1="286.5" y1="31" x2="286.5" y2="1067"/>
<line opacity="0.4" fill="none" stroke="#A8A8A8" stroke-miterlimit="10" x1="318.5" y1="31" x2="318.5" y2="1067"/>
<line opacity="0.4" fill="none" stroke="#A8A8A8" stroke-miterlimit="10" x1="350.5" y1="30" x2="350.5" y2="1079"/>
<line opacity="0.4" fill="none" stroke="#A8A8A8" stroke-miterlimit="10" x1="190.5" y1="31" x2="190.5" y2="1066"/>
<line opacity="0.4" fill="none" stroke="#A8A8A8" stroke-miterlimit="10" x1="222.5" y1="30" x2="222.5" y2="1066"/>
<line opacity="0.4" fill="none" stroke="#A8A8A8" stroke-miterlimit="10" x1="253.5" y1="31" x2="253.5" y2="1082"/>
<line opacity="0.4" fill="none" stroke="#A8A8A8" stroke-miterlimit="10" x1="383.5" y1="31" x2="383.5" y2="1066"/>
<line opacity="0.4" fill="none" stroke="#A8A8A8" stroke-miterlimit="10" x1="414.5" y1="31" x2="414.5" y2="1066"/>
<line opacity="0.4" fill="none" stroke="#A8A8A8" stroke-miterlimit="10" x1="447.5" y1="31" x2="447.5" y2="1082"/>
<line opacity="0.4" fill="none" stroke="#A8A8A8" stroke-miterlimit="10" x1="478.5" y1="31" x2="478.5" y2="1066"/>
<line opacity="0.4" fill="none" stroke="#A8A8A8" stroke-miterlimit="10" x1="510.5" y1="31" x2="510.5" y2="1066"/>
<line opacity="0.4" fill="none" stroke="#A8A8A8" stroke-miterlimit="10" x1="543.5" y1="31" x2="543.5" y2="1082"/>
<line opacity="0.4" fill="none" stroke="#A8A8A8" stroke-miterlimit="10" x1="575.5" y1="30" x2="575.5" y2="1079"/>
<line opacity="0.4" fill="none" stroke="#A8A8A8" stroke-miterlimit="10" x1="608.5" y1="30" x2="608.5" y2="1066"/>
<line opacity="0.4" fill="none" stroke="#A8A8A8" stroke-miterlimit="10" x1="639.5" y1="30" x2="639.5" y2="1066"/>
<line opacity="0.4" fill="none" stroke="#A8A8A8" stroke-miterlimit="10" x1="671.5" y1="30" x2="671.5" y2="1080"/>
<line opacity="0.4" fill="none" stroke="#A8A8A8" stroke-miterlimit="10" x1="703.5" y1="30" x2="703.5" y2="1066"/>
<line opacity="0.4" fill="none" stroke="#A8A8A8" stroke-miterlimit="10" x1="735.5" y1="30" x2="735.5" y2="1066"/>
<line opacity="0.4" fill="none" stroke="#A8A8A8" stroke-miterlimit="10" x1="767.5" y1="31" x2="767.5" y2="1081"/>
<path fill="none" stroke="#A8A8A8" stroke-miterlimit="10" d="M735,30.5"/>
<path fill="none" stroke="#A8A8A8" stroke-miterlimit="10" d="M29,30.5"/>
<rect x="18.667" y="15" fill="none" width="21.667" height="10"/>
<text transform="matrix(1 0 0 1 19.8659 22.5)" font-family="'Roboto-Regular'" font-size="10">1:00</text>
<rect x="147.667" y="15" fill="none" width="21.667" height="10"/>
<text transform="matrix(1 0 0 1 148.8659 22.5)" font-family="'Roboto-Regular'" font-size="10">5:00</text>
<rect x="114.667" y="15" fill="none" width="21.667" height="10"/>
<text transform="matrix(1 0 0 1 115.8659 22.5)" font-family="'Roboto-Regular'" font-size="10">4:00</text>
<rect x="83.667" y="15" fill="none" width="21.667" height="10"/>
<text transform="matrix(1 0 0 1 84.8659 22.5)" font-family="'Roboto-Regular'" font-size="10">3:00</text>
<rect x="50.667" y="15" fill="none" width="21.667" height="10"/>
<text transform="matrix(1 0 0 1 51.8659 22.5)" font-family="'Roboto-Regular'" font-size="10">2:00</text>
<rect x="304.833" y="15" fill="none" width="27.333" height="10"/>
<text transform="matrix(1 0 0 1 306.0584 22.5)" font-family="'Roboto-Regular'" font-size="10">10:00</text>
<rect x="275.667" y="15" fill="none" width="21.667" height="10"/>
<text transform="matrix(1 0 0 1 276.8659 22.5)" font-family="'Roboto-Regular'" font-size="10">9:00</text>
<rect x="242.667" y="15" fill="none" width="21.667" height="10"/>
<text transform="matrix(1 0 0 1 243.8659 22.5)" font-family="'Roboto-Regular'" font-size="10">8:00</text>
<rect x="211.667" y="15" fill="none" width="21.667" height="10"/>
<text transform="matrix(1 0 0 1 212.8659 22.5)" font-family="'Roboto-Regular'" font-size="10">7:00</text>
<rect x="179.667" y="15" fill="none" width="21.667" height="10"/>
<text transform="matrix(1 0 0 1 180.8688 22.5)" font-family="'Roboto-Regular'" font-size="10">6:00</text>
<rect x="594.833" y="15" fill="none" width="27.333" height="10"/>
<text transform="matrix(1 0 0 1 596.0584 22.5)" font-family="'Roboto-Regular'" font-size="10">19:00</text>
<rect x="561.833" y="15" fill="none" width="27.333" height="10"/>
<text transform="matrix(1 0 0 1 563.0584 22.5)" font-family="'Roboto-Regular'" font-size="10">18:00</text>
<rect x="529.833" y="15" fill="none" width="27.333" height="10"/>
<text transform="matrix(1 0 0 1 531.0584 22.5)" font-family="'Roboto-Regular'" font-size="10">17:00</text>
<rect x="496.833" y="15" fill="none" width="27.333" height="10"/>
<text transform="matrix(1 0 0 1 498.0609 22.5)" font-family="'Roboto-Regular'" font-size="10">16:00</text>
<rect x="464.833" y="15" fill="none" width="27.333" height="10"/>
<text transform="matrix(1 0 0 1 466.0584 22.5)" font-family="'Roboto-Regular'" font-size="10">15:00</text>
<rect x="433.833" y="15" fill="none" width="27.333" height="10"/>
<text transform="matrix(1 0 0 1 435.0584 22.5)" font-family="'Roboto-Regular'" font-size="10">14:00</text>
<rect x="400.833" y="15" fill="none" width="27.333" height="10"/>
<text transform="matrix(1 0 0 1 402.0584 22.5)" font-family="'Roboto-Regular'" font-size="10">13:00</text>
<rect x="369.833" y="15" fill="none" width="27.333" height="10"/>
<text transform="matrix(1 0 0 1 371.0584 22.5)" font-family="'Roboto-Regular'" font-size="10">12:00</text>
<rect x="336.833" y="15" fill="none" width="27.333" height="10"/>
<text transform="matrix(1 0 0 1 338.0584 22.5)" font-family="'Roboto-Regular'" font-size="10">11:00</text>
<rect x="689.833" y="15" fill="none" width="27.333" height="10"/>
<text transform="matrix(1 0 0 1 691.0584 22.5)" font-family="'Roboto-Regular'" font-size="10">22:00</text>
<rect x="657.833" y="15" fill="none" width="27.333" height="10"/>
<text transform="matrix(1 0 0 1 659.0584 22.5)" font-family="'Roboto-Regular'" font-size="10">21:00</text>
<rect x="625.833" y="15" fill="none" width="27.333" height="10"/>
<text transform="matrix(1 0 0 1 627.0584 22.5)" font-family="'Roboto-Regular'" font-size="10">20:00</text>
<rect x="721.833" y="15" fill="none" width="27.333" height="10"/>
<text transform="matrix(1 0 0 1 723.0584 22.5)" font-family="'Roboto-Regular'" font-size="10">23:00</text>
</svg>
